HIERARCHY
ROOT root
{
	OFFSET	0	13.1	24.9
	CHANNELS 6  Xposition Yposition Zposition Xrotation Yrotation Zrotation
	JOINT spine_1
	{
		OFFSET	0	9.99999	0
		CHANNELS 3  Xrotation Yrotation Zrotation
		JOINT spine_2
		{
			OFFSET	0	112	-10
			CHANNELS 3  Xrotation Yrotation Zrotation
			JOINT spine_3
			{
				OFFSET	0	206.5	19.3
				CHANNELS 3  Xrotation Yrotation Zrotation
				JOINT spine_4
				{
					OFFSET	0	110.4	14.6
					CHANNELS 3  Xrotation Yrotation Zrotation
					JOINT neck_1
					{
						OFFSET	0	71.8	-50.3
						CHANNELS 3  Xrotation Yrotation Zrotation
						JOINT neck_2
						{
							OFFSET	0	86.2	-25.8
							CHANNELS 3  Xrotation Yrotation Zrotation
							JOINT head_ee
							{
								OFFSET	0	179.8	-8.7
								CHANNELS 3  Xrotation Yrotation Zrotation
								End Site
								{
									OFFSET	1	0	0
								}
							}
						}
					}
					JOINT left_clavicle
					{
						OFFSET	-43.2	22.4	-70.8
						CHANNELS 3  Xrotation Yrotation Zrotation
						JOINT left_shoulder
						{
							OFFSET	-93.9	-5.79999	48.7
							CHANNELS 3  Xrotation Yrotation Zrotation
							JOINT left_elbow
							{
								OFFSET	-291.4	-30.8	15.2
								CHANNELS 3  Xrotation Yrotation Zrotation
								JOINT left_lowarm_twist
								{
									OFFSET	-110.7	-3.89999	13.6
									CHANNELS 3  Xrotation Yrotation Zrotation
									JOINT left_hand
									{
										OFFSET	-110.7	-3.89999	13.6
										CHANNELS 3  Xrotation Yrotation Zrotation
										JOINT left_ee
										{
											OFFSET	-80.8	-5.10001	12.1
											CHANNELS 3  Xrotation Yrotation Zrotation
											End Site
											{
												OFFSET	1	0	0
											}
										}
									}
								}
							}
						}
					}
					JOINT right_clavicle
					{
						OFFSET	43.2	22.4	-70.8
						CHANNELS 3  Xrotation Yrotation Zrotation
						JOINT right_shoulder
						{
							OFFSET	93.9	-5.79999	48.7
							CHANNELS 3  Xrotation Yrotation Zrotation
							JOINT right_elbow
							{
								OFFSET	291.4	-30.8	15.2
								CHANNELS 3  Xrotation Yrotation Zrotation
								JOINT right_lowarm_twist
								{
									OFFSET	110.7	-3.89999	13.6
									CHANNELS 3  Xrotation Yrotation Zrotation
									JOINT right_hand
									{
										OFFSET	110.7	-3.89999	13.6
										CHANNELS 3  Xrotation Yrotation Zrotation
										JOINT right_ee
										{
											OFFSET	80.8	-5.10001	12.1
											CHANNELS 3  Xrotation Yrotation Zrotation
											End Site
											{
												OFFSET	1	0	0
											}
										}
									}
								}
							}
						}
					}
				}
			}
		}
	}
	JOINT left_hip
	{
		OFFSET	-82.8	-127.5	0.300001
		CHANNELS 3  Xrotation Yrotation Zrotation
		JOINT left_knee
		{
			OFFSET	-28.2	-396.7	2.2
			CHANNELS 3  Xrotation Yrotation Zrotation
			JOINT left_ankle
			{
				OFFSET	-11.7	-411.3	35.4
				CHANNELS 3  Xrotation Yrotation Zrotation
				JOINT left_toes
				{
					OFFSET	0	-60	-88.6
					CHANNELS 3  Xrotation Yrotation Zrotation
					JOINT left_foot_ee
					{
						OFFSET	-22.5	-16.5	-42.2
						CHANNELS 3  Xrotation Yrotation Zrotation
						End Site
						{
							OFFSET	1	0	0
						}
					}
				}
			}
		}
	}
	JOINT right_hip
	{
		OFFSET	82.8	-127.5	0.300001
		CHANNELS 3  Xrotation Yrotation Zrotation
		JOINT right_knee
		{
			OFFSET	28.2	-396.7	2.2
			CHANNELS 3  Xrotation Yrotation Zrotation
			JOINT right_ankle
			{
				OFFSET	11.7	-411.3	35.4
				CHANNELS 3  Xrotation Yrotation Zrotation
				JOINT right_toes
				{
					OFFSET	0	-60	-88.6
					CHANNELS 3  Xrotation Yrotation Zrotation
					JOINT right_foot_ee
					{
						OFFSET	22.5	-16.5	-42.2
						CHANNELS 3  Xrotation Yrotation Zrotation
						End Site
						{
							OFFSET	1	0	0
						}
					}
				}
			}
		}
	}
}
MOTION
Frames: 16
Frame Time: 0.02
2117.13 691.848 -614.921 150.334 -70.7733 151.577 -4.40461 0.465932 1.60564 -4.40325 0.362831 1.63203 -4.39013 -0.116274 1.66781 -4.39398 0.148548 1.66525 -4.2417 6.55324 -0.171668 -4.19722 12.1299 0.885333 -0.0 0.0 -0.0 1.23345 13.5794 3.62049 -15.7483 -10.7292 74.5207 0.338826 -9.52818 0.0282382 -81.705 -8.03772 5.25354 3.29716 -28.5836 8.93295 -0.0 0.0 -0.0 4.35872 28.8425 -6.16817 16.4451 15.0798 -59.0703 1.97082 44.3076 -0.802488 22.3674 -0.238587 2.82918 -2.24829 -7.24883 11.6777 0.0 0.0 0.0 15.8196 10.4417 -5.70326 -0.932021 0.037253 0.138177 -0.414353 14.2273 0.0610083 -32.0891 0.0 0.0 -0.0 0.0 -0.0 -21.67 -3.9236 7.30223 -13.2516 -0.314989 -2.00473 33.5491 28.5073 5.14008 -15.8999 0.0 0.0 0.0 0.0 0.0 
2146.77 695.437 -617.416 146.253 -70.4597 147.947 -4.41442 0.529565 1.60198 -4.4131 0.426567 1.63242 -4.39807 -0.0554903 1.68631 -4.40198 0.211489 1.67392 -5.92641 5.92274 0.371447 -5.91341 10.6703 1.48019 -0.0 0.0 -0.0 1.47223 13.4891 4.00454 -15.6214 -11.0033 72.845 0.34153 -9.60279 0.0286876 -81.6875 -8.03551 5.25384 3.43105 -28.5761 9.79367 -0.0 0.0 -0.0 4.27584 28.9704 -5.97436 13.4039 14.6039 -59.7465 1.85846 42.6293 -0.725187 21.9977 -0.24367 2.78223 -2.14053 -7.40258 10.8874 0.0 0.0 0.0 13.6348 10.4358 -5.38313 -4.96626 0.172382 0.742442 2.60673 14.426 -0.381156 -30.678 0.0 0.0 -0.0 0.0 -0.0 -24.0277 -4.54779 6.41318 -17.0918 -0.318924 -2.5938 32.4286 26.2697 4.88546 -15.9606 0.0 0.0 0.0 0.0 0.0 
2171.81 694.239 -618.431 141.898 -70.341 144.124 -4.47347 0.479356 1.60834 -4.47211 0.376055 1.63557 -4.45854 -0.1066 1.67485 -4.46241 0.159211 1.67067 -8.05037 5.38422 0.920084 -8.0587 9.40292 2.08848 -0.0 0.0 -0.0 1.64977 13.409 4.28991 -14.9877 -11.5504 71.0642 0.373604 -10.4854 0.0342815 -80.9758 -7.9455 5.26554 3.42174 -28.5674 9.73878 -0.0 0.0 -0.0 4.3745 29.1629 -6.16755 11.6185 14.4285 -60.2881 1.74514 40.8395 -0.64974 21.429 -0.250898 2.70994 -2.1601 -8.66272 10.3997 0.0 0.0 0.0 12.157 9.96279 -5.70889 -7.84306 0.242582 1.17829 6.65769 12.693 -0.959831 -29.1529 0.0 0.0 -0.0 0.0 -0.0 -25.7245 -4.84574 5.89931 -18.1917 -0.312778 -2.76244 28.9219 24.4644 4.38295 -16.4848 0.0 0.0 0.0 0.0 0.0 
2199.15 693.572 -619.227 138.464 -70.8694 140.571 -4.45664 0.41305 1.63129 -4.45521 0.308424 1.65426 -4.4435 -0.176343 1.6735 -4.44739 0.0901294 1.68035 -8.03984 4.90344 1.48638 -8.04253 8.10436 2.5423 -0.0 0.0 -0.0 1.9191 12.2029 4.64928 -14.3273 -11.8306 69.8119 0.445343 -12.441 0.048541 -80.6525 -7.90456 5.27048 3.36755 -27.4561 9.99295 -0.0 0.0 -0.0 4.69476 30.0855 -6.76083 9.99018 14.0259 -60.8632 1.46345 35.938 -0.474653 21.31 -0.25232 2.69481 -1.94959 -7.57754 9.54181 0.0 0.0 0.0 11.0703 9.82137 -5.40791 -7.96802 0.245135 1.1973 4.9263 12.1772 -0.713342 -30.1398 0.0 0.0 -0.0 0.0 -0.0 -26.3115 -3.86962 5.45547 -20.5028 -0.289323 -3.11625 29.7045 22.6304 4.39689 -16.3674 0.0 0.0 0.0 0.0 0.0 
2222.93 700.788 -624.645 137.95 -71.576 140.106 -4.11216 0.444916 1.61031 -4.11078 0.341561 1.63534 -4.09838 -0.129138 1.66563 -4.10223 0.1355 1.66512 -8.84957 3.8743 1.85421 -8.84824 5.9715 2.71708 -0.0 0.0 -0.0 2.2713 11.4693 5.19349 -12.5982 -12.36 68.4379 0.391006 -10.9623 0.0375198 -80.9602 -7.94352 5.26578 3.14971 -24.5972 10.088 -0.0 0.0 -0.0 4.34293 29.1397 -6.10156 6.80934 14.4223 -62.4825 1.40137 34.7664 -0.438732 19.7031 -0.268435 2.4902 -1.49018 -5.7166 7.38677 0.0 0.0 0.0 9.15271 9.03361 -4.27605 -6.86249 0.221115 1.02935 5.89765 11.2909 -0.850775 -30.6113 0.0 0.0 -0.0 0.0 -0.0 -26.258 -0.797553 4.38128 -20.441 -0.290135 -3.1068 21.7324 14.9925 3.17234 -15.437 0.0 0.0 0.0 0.0 0.0 
2253.29 705.26 -623.465 134.703 -72.1124 137.621 -3.90186 0.345354 1.65929 -3.90036 0.239084 1.6779 -3.89081 -0.233389 1.6787 -3.89474 0.03462 1.69449 -9.38768 2.94603 1.65839 -9.3856 4.39435 2.328 -0.0 0.0 -0.0 2.56645 10.7411 5.65233 -11.1664 -12.855 66.9918 0.356135 -10.0053 0.0311744 -81.1119 -7.96273 5.26339 3.01011 -22.1507 10.4199 -0.0 0.0 -0.0 4.31765 28.9652 -6.06569 3.88932 14.7191 -64.4707 1.28383 32.4538 -0.373657 17.8385 -0.279934 2.25233 -1.08692 -4.5734 5.24165 0.0 0.0 0.0 7.13505 8.58974 -4.40325 -6.65968 0.216357 0.998591 4.00074 10.6175 -0.579944 -30.732 0.0 0.0 -0.0 0.0 -0.0 -26.421 1.85565 1.80585 -24.092 -0.224663 -3.66313 15.1168 7.86729 2.18616 -14.3622 0.0 0.0 0.0 0.0 0.0 
2290.25 707.253 -622.476 128.136 -72.3831 131.046 -3.8535 0.197595 1.66323 -3.85196 0.0913737 1.67243 -3.84701 -0.372659 1.63295 -3.85071 -0.110126 1.6713 -9.38703 1.93851 1.63082 -9.38164 2.52113 2.06026 -0.0 0.0 -0.0 2.6383 10.3567 5.75391 -11.2235 -13.4298 65.0115 0.429409 -12.009 0.0451669 -81.4891 -8.01043 5.25721 3.02999 -21.3495 10.9567 -0.0 0.0 -0.0 4.30592 28.8435 -6.05345 0.659171 14.8342 -67.0703 1.13713 29.3916 -0.298239 15.2672 -0.283085 1.92395 -0.81002 -3.74504 3.77768 0.0 0.0 0.0 5.55148 8.06464 -4.36703 -12.1384 0.306468 1.83414 6.57283 8.13682 -0.944793 -31.069 0.0 0.0 -0.0 0.0 -0.0 -26.2736 4.91343 0.105619 -30.0411 -0.0424915 -4.55755 10.613 -1.3004 1.51518 -12.4194 0.0 0.0 0.0 0.0 0.0 
2322.11 711.874 -629.256 126.713 -72.3752 128.857 -3.58951 0.292056 1.65176 -3.58801 0.186373 1.66699 -3.58027 -0.272093 1.65517 -3.5841 -0.00731329 1.67736 -10.3119 0.322712 0.612961 -10.3109 0.196689 0.677964 -0.0 0.0 -0.0 2.74212 9.82132 5.90362 -10.8358 -13.9878 63.7493 0.529335 -14.6933 0.0682479 -81.9231 -8.06526 5.24972 3.18178 -20.9539 12.1737 -0.0 0.0 -0.0 4.20801 29.0132 -5.82249 -2.13618 14.8041 -69.0449 0.966127 25.5749 -0.219281 12.7519 -0.27191 1.60291 -0.855744 -7.75306 2.32254 0.0 0.0 0.0 3.71182 8.1088 -3.15763 -17.2561 0.318211 2.619 15.2544 4.72027 -2.12847 -31.5186 0.0 0.0 -0.0 0.0 -0.0 -24.0915 8.74278 0.853559 -34.9847 0.178904 -5.28357 0.753858 -12.8381 0.110454 -9.75157 0.0 0.0 0.0 0.0 0.0 
2342.72 717.417 -634.399 124.35 -72.51 126.843 -3.33973 0.278909 1.4402 -3.33859 0.18671 1.45503 -3.33214 -0.208052 1.45213 -3.33508 0.0238703 1.46676 -12.1838 0.109014 1.04171 -12.1809 -0.460969 1.03095 -0.0 0.0 -0.0 3.21762 8.91246 6.68815 -8.31472 -15.3108 63.0651 0.634692 -17.4537 0.0974269 -81.7569 -8.04427 5.25264 3.33842 -20.5364 13.442 -0.0 0.0 -0.0 4.19437 29.2064 -5.77188 -4.19548 14.9766 -69.9411 0.798262 21.5755 -0.152102 10.4082 -0.248825 1.30445 -0.413586 -7.50674 -0.439733 0.0 0.0 0.0 0.96073 6.49208 -2.49749 -16.821 0.31994 2.55226 16.9518 2.65136 -2.35392 -33.147 0.0 0.0 -0.0 0.0 -0.0 -21.3053 13.1502 -1.48783 -38.1712 0.35454 -5.74056 -11.4114 -19.6489 -1.73588 -8.56109 0.0 0.0 0.0 0.0 0.0 
2362.12 719.593 -634.253 126.851 -71.5435 129.295 -3.33678 0.346853 1.35694 -3.3358 0.259813 1.37625 -3.32794 -0.116461 1.39571 -3.33064 0.105404 1.39659 -12.5002 0.0172653 -0.415324 -12.4998 0.29687 -0.392906 -0.0 0.0 -0.0 3.40958 7.60091 6.96945 -5.64954 -13.9387 62.1031 0.753677 -20.473 0.136106 -81.6365 -8.02907 5.25471 3.41493 -19.933 14.2699 -0.0 0.0 -0.0 4.33963 29.1763 -6.09039 -6.08808 17.6756 -71.2363 0.685631 18.7597 -0.113259 7.92091 -0.210995 0.989007 -0.0904401 -9.63462 -3.41262 0.0 0.0 0.0 -0.948387 6.69798 -2.2677 -17.4814 0.317117 2.65355 19.3443 4.19967 -2.65266 -32.9068 0.0 0.0 -0.0 0.0 -0.0 -18.871 14.3905 -2.57262 -41.1225 0.53972 -6.15469 -21.926 -24.2265 -3.42302 -8.9128 0.0 0.0 0.0 0.0 0.0 
2380.75 721.523 -637.284 126.994 -72.5229 129.647 -3.22382 0.168372 1.2495 -3.22296 0.088528 1.25768 -3.21983 -0.247642 1.23624 -3.22196 -0.0493101 1.25983 -13.4873 -0.101825 1.4533 -13.4822 -1.09436 1.35303 -0.0 0.0 -0.0 3.10717 3.22767 6.18888 -4.58174 -13.6041 61.7857 0.860109 -23.0773 0.175599 -79.1749 -7.71707 5.29009 3.27333 -20.7349 12.9011 -0.0 0.0 -0.0 4.45714 29.0221 -6.36229 -7.34695 19.7003 -71.5527 0.579176 16.0087 -0.0814434 4.94737 -0.147853 0.614454 0.185211 -14.5168 -7.10991 0.0 0.0 0.0 -3.48867 4.12739 -1.25056 -14.4405 0.320427 2.18705 22.5835 7.8863 -3.04623 -32.6203 0.0 0.0 -0.0 0.0 -0.0 -15.0007 15.7206 -4.58088 -44.9687 0.812745 -6.6794 -25.2656 -27.3468 -4.01232 -15.3953 0.0 0.0 0.0 0.0 0.0 
2398.78 724.709 -638.3 128.915 -72.4082 131.732 -3.18403 0.133123 1.11631 -3.18334 0.0618239 1.12252 -3.18121 -0.236861 1.09898 -3.18289 -0.0603353 1.1226 -13.2755 0.273612 0.991343 -13.2727 -0.096821 1.02777 -0.0 0.0 -0.0 2.93926 0.63809 5.70716 -2.83103 -12.9852 61.0151 0.938803 -24.9407 0.207622 -76.4997 -7.37635 5.31316 3.02614 -21.4501 10.8804 -0.0 0.0 -0.0 4.2083 28.7423 -5.8525 -9.06633 21.1787 -72.2067 0.583534 16.1229 -0.0826493 3.56681 -0.111945 0.44176 0.716741 -16.3215 -11.115 0.0 0.0 0.0 -3.67367 2.51444 -1.08662 -16.3209 0.321302 2.47554 22.9693 11.0114 -3.10004 -33.0785 0.0 0.0 -0.0 0.0 -0.0 -12.6452 16.0913 -4.66635 -47.2388 0.990284 -6.98024 -25.6153 -26.7597 -4.05387 -22.0755 0.0 0.0 0.0 0.0 0.0 
2420.49 731.697 -645.082 123.152 -72.0849 125.307 -3.47462 -0.0719484 1.02982 -3.47404 -0.137329 1.02316 -3.4759 -0.407603 0.948463 -3.47706 -0.252704 1.00093 -12.7171 0.380776 2.53904 -12.6993 -0.882025 2.54069 -0.0 0.0 -0.0 3.1154 -3.67332 5.75388 -1.65871 -13.2085 61.0855 0.984581 -25.9995 0.227309 -75.8256 -7.29031 5.31645 2.93255 -21.72 10.1209 -0.0 0.0 -0.0 4.533 28.6747 -6.56478 -10.2502 22.4367 -72.2475 0.411283 11.5159 -0.0414717 2.14122 -0.0705066 0.264379 0.99154 -19.7257 -14.0041 0.0 0.0 0.0 -6.50262 2.48169 0.415657 -16.0828 0.321714 2.43902 20.8023 9.02327 -2.83133 -31.4851 0.0 0.0 -0.0 0.0 -0.0 -7.2033 18.702 -0.683244 -52.1778 1.41708 -7.60948 -24.6852 -28.348 -3.94416 -29.716 0.0 0.0 0.0 0.0 0.0 
2431.46 733.267 -656.381 127.1 -72.4288 129.023 -3.5158 -0.168169 0.799702 -3.51548 -0.218713 0.787382 -3.51824 -0.423047 0.699172 -3.51879 -0.30732 0.757207 -11.0584 0.142982 2.34457 -11.0433 -1.27579 2.30625 -0.0 0.0 -0.0 3.40875 -6.51098 6.14022 -0.119555 -12.8599 60.1426 1.03927 -27.2399 0.251816 -73.213 -6.9565 5.31951 2.44669 -21.0589 7.21888 -0.0 0.0 -0.0 4.23305 28.7427 -5.90616 -12.5596 24.4165 -70.8203 0.442979 12.3769 -0.0480329 0.977593 -0.0334173 0.120382 1.3598 -22.3022 -17.0878 0.0 0.0 0.0 -6.9832 3.8482 1.95744 -13.7833 0.317889 2.08624 20.6891 10.4405 -2.82065 -30.618 0.0 0.0 -0.0 0.0 -0.0 -4.64896 19.8797 -0.696125 -52.6452 1.46026 -7.66709 -24.4544 -29.3627 -3.93286 -34.298 0.0 0.0 0.0 0.0 0.0 
2447.49 734.476 -667.99 130.277 -69.9855 131.668 -4.04095 -0.123254 0.546319 -4.0408 -0.157767 0.53737 -4.04216 -0.301226 0.472145 -4.0424 -0.22288 0.513792 -10.0327 0.980286 2.24688 -10.0185 0.326907 2.43398 -0.0 0.0 -0.0 3.76802 -9.63788 6.6491 0.827005 -10.9889 59.4192 1.19671 -30.659 0.328057 -70.6213 -6.62534 5.3074 2.34064 -21.821 6.15058 -0.0 0.0 -0.0 4.10991 28.6436 -5.6496 -14.7283 28.1973 -68.7662 0.41618 11.6493 -0.042455 -0.863233 0.0312141 -0.10582 1.92242 -25.6601 -21.4633 0.0 0.0 0.0 -9.61118 8.91232 3.84025 -13.728 0.317622 2.07777 21.1598 11.958 -2.88411 -31.5351 0.0 0.0 -0.0 0.0 -0.0 4.44241 19.3049 -1.41215 -60.329 2.23561 -8.56159 -22.9258 -26.8836 -3.63053 -40.1017 0.0 0.0 0.0 0.0 0.0 
2465.35 736.41 -674.467 131.329 -69.2345 132.349 -4.38288 -0.154889 0.371916 -4.38282 -0.178241 0.361306 -4.38393 -0.273606 0.295723 -4.38398 -0.223469 0.335222 -9.01558 1.5395 2.90825 -8.9923 0.873871 3.21582 -0.0 0.0 -0.0 3.98776 -10.7362 7.02475 2.6069 -9.62691 57.9106 1.27559 -32.287 0.369245 -67.3263 -6.20538 5.27026 1.38402 -21.4042 0.0466304 -0.0 0.0 -0.0 3.5717 27.6553 -4.58719 -15.8069 28.9933 -68.3517 0.493248 13.7308 -0.0593879 -1.63441 0.0604473 -0.199954 2.22691 -26.2155 -23.4711 0.0 0.0 0.0 -12.4562 7.83024 5.99486 -10.683 0.290334 1.61142 21.039 14.7418 -2.88467 -31.3544 0.0 0.0 -0.0 0.0 -0.0 12.3667 21.3698 -4.34406 -65.2248 2.78978 -9.07485 -24.3378 -24.5714 -3.80703 -39.6036 0.0 0.0 0.0 0.0 0.0 
